<?xml version="1.0" encoding="utf-8"?>
<!-- Generator: Adobe Illustrator 23.0.5, SVG Export Plug-In . SVG Version: 6.00 Build 0)  -->
<svg version="1.1" id="layer" xmlns="http://www.w3.org/2000/svg" xmlns:xlink="http://www.w3.org/1999/xlink" x="0px" y="0px"
	 viewBox="0 0 602.23 527.03" style="enable-background:new 0 0 602.23 527.03;" xml:space="preserve">
<style type="text/css">
	.st0{fill-rule:evenodd;clip-rule:evenodd;fill:#9BAC22;}
	.st1{fill-rule:evenodd;clip-rule:evenodd;fill:#86736C;}
	.st2{fill-rule:evenodd;clip-rule:evenodd;fill:#899927;}
	.st3{fill-rule:evenodd;clip-rule:evenodd;fill:#734A21;}
	.st4{fill-rule:evenodd;clip-rule:evenodd;fill:#663F1A;}
	.st5{fill-rule:evenodd;clip-rule:evenodd;fill:#94602A;}
	.st6{fill-rule:evenodd;clip-rule:evenodd;fill:#A4723B;}
	.st7{fill-rule:evenodd;clip-rule:evenodd;fill:#B8854D;}
	.st8{fill-rule:evenodd;clip-rule:evenodd;fill:#C6B3AD;}
	.st9{fill-rule:evenodd;clip-rule:evenodd;fill:#DED3D0;}
	.st10{fill-rule:evenodd;clip-rule:evenodd;fill:#A2918A;}
	.st11{fill-rule:evenodd;clip-rule:evenodd;fill:#E0A65F;}
</style>
<g>
	<path class="st0" d="M348.51,176.14c32.88,5.52,52.96,8.75,85.01,18.95c38.36,12.21,63.54,10.73,101.56,16.66
		c20.88,3.26,54.81,11.48,65.28,31.72c2.13,4.11,1.95,5.75,1.79,10.11c-3.6,20.1-54.29,5.81-52.74,32.52
		c1.13,19.39,52.53,29.66,45.67,57.11l-2.01,5.35c-14.83,30.01-78.24,36.39-101,53.38c-3.54,3.83-5.9,18.57-7.55,24.6
		c-5.36,18.19,5.75,20.91,8.9,37.61c5.78,30.65-48.21,35.17-68.34,36.89c-13.98,1.19-27.81,1.61-41.83,1.8
		c-65.03,0.65-65.4-26.06-125.31,10.7c-40.97,22.95-146.65,17.03-179.23-20.83c-39.81-46.24,43.38-64.66,23.44-105.47
		c-19.02-38.92-125.44-39.76-97.48-77.02l3.52-4.12c38.35-32.65,100.03-21.75,110.94-40.37c10.06-17.16-30.59-32.45-26.53-68.12
		c1.23-10.87,17.65-5.9,27.21-5.37c38.81,2.17,75.28,0.23,115.28,3.48c6.7,0.54,12.07,0.36,18.75-0.07
		c7.41-1.05,8.6-1.56,11.68-7.19C266.73,160.68,346.29,175.78,348.51,176.14z"/>
	<path class="st1" d="M166.24,192.34l59.55-16.04l10.9,40.46c4.41,16.38-5.38,33.38-21.75,37.8l0,0
		c-16.38,4.41-33.39-5.38-37.8-21.76L166.24,192.34z"/>
	<rect x="159.93" y="225.09" class="st0" width="93.59" height="49.38"/>
	<path class="st2" d="M294.29,299.43c1.69-33.91,12.36-75.35,54.99-60.72c57.54,19.76,84.97-13.52,120.7,0.53
		c12.58,4.95,38.02,15.03,47.04,22.98c27.54,32.75-41.37,49.73-60.35,68.6c-32.6,32.41-9.57,70.7-62.42,109.95l-9.24,6.86
		c-25.55,18.43-48.28,16.35-77.54,11.05c-53.89-10.11-91.63-49.98-45.2-98.24C284.21,338.77,295.31,333.05,294.29,299.43z"/>
	<path class="st3" d="M494.81,270.1c6.7,30.62-31.68,37.48-49.74,54.05c-28.19,25.86-20.85,44.69-64.51,73.49
		c-14.29,9.42-21.3,16.6-34.12,27.07c-13.81,10.93-25.75,15.97-43.45,19.29c-60.33,6.41-78.52-59.96-140.4-81.91
		c-30.15-10.69-65.7-28.08-36.4-60.75c12.41-13.84,44.76-17.24,64.15-25.28c28.74-12.11,56.23-25.54,85.28-37.74
		c47.3-19.87,44.99-44.53,107.63-28.46c23.77,6.1,72.89,18.01,92.34,30.82C486.53,248.96,490.63,257.72,494.81,270.1z"/>
	<path class="st4" d="M494.81,270.1c6.7,30.62-31.68,37.48-49.74,54.05c-28.19,25.86-20.85,44.69-64.51,73.49
		c-14.29,9.42-21.3,16.6-34.12,27.07c-13.81,10.93-25.75,15.97-43.45,19.29c-30.92,3.29-50.78-12.55-71.12-31.73
		c19.74,7.61,45.67,15.85,76.22,3.13c33.43-13.92,49.56-27.76,72.47-55.07c3-3.6,6-7.21,9.02-10.79c2.15-2.49,4.31-5.01,6.53-7.44
		c26.47-29.04,41.69-29.02,66.28-49.79c27.86-23.52,26.07-30.61,12.68-51.98c0.17,0.11,0.34,0.22,0.51,0.33
		C486.53,248.96,490.63,257.72,494.81,270.1z"/>
	<polygon class="st5" points="139.23,309.86 348.51,211.5 466.62,245.14 290.49,397.16 	"/>
	<polygon class="st6" points="348.51,211.5 359.9,255.91 198.37,343.99 139.23,309.86 	"/>
	<polygon class="st7" points="359.9,255.91 425.44,280.69 290.49,397.16 198.37,343.99 	"/>
	<g>
		<path class="st6" d="M340.72,288.38c4.95,0,8.98-1.05,8.98-2.33c0-1.28-4.03-2.32-8.98-2.32c-4.95,0-8.98,1.04-8.98,2.32
			C331.73,287.33,335.77,288.38,340.72,288.38z"/>
		<path class="st8" d="M338.15,288.03c5.32,0,9.67-2.02,9.67-4.49c0-2.47-4.34-4.49-9.67-4.49c-5.33,0-9.67,2.02-9.67,4.49
			C328.48,286.01,332.82,288.03,338.15,288.03z"/>
		<path class="st9" d="M335.52,284.52c2.78,0,5.05-1.05,5.05-2.34c0-1.29-2.27-2.35-5.05-2.35c-2.78,0-5.05,1.06-5.05,2.35
			C330.47,283.46,332.74,284.52,335.52,284.52z"/>
	</g>
	<g>
		<path class="st6" d="M346.75,290.51c2.61,0,4.74-0.55,4.74-1.22c0-0.68-2.13-1.23-4.74-1.23c-2.61,0-4.74,0.55-4.74,1.23
			C342.01,289.96,344.14,290.51,346.75,290.51z"/>
		<path class="st8" d="M345.39,290.33c2.81,0,5.1-1.07,5.1-2.37s-2.29-2.37-5.1-2.37c-2.81,0-5.11,1.07-5.11,2.37
			S342.58,290.33,345.39,290.33z"/>
		<path class="st9" d="M344,288.48c1.47,0,2.67-0.56,2.67-1.24c0-0.68-1.2-1.24-2.67-1.24c-1.47,0-2.66,0.56-2.66,1.24
			C341.34,287.92,342.54,288.48,344,288.48z"/>
	</g>
	<g>
		<path class="st6" d="M326.98,294.61c2.61,0,4.74-0.55,4.74-1.23c0-0.67-2.13-1.23-4.74-1.23c-2.61,0-4.74,0.55-4.74,1.23
			C322.24,294.07,324.37,294.61,326.98,294.61z"/>
		<path class="st8" d="M325.62,294.43c2.81,0,5.11-1.07,5.11-2.37c0-1.31-2.29-2.37-5.11-2.37c-2.81,0-5.1,1.06-5.1,2.37
			C320.52,293.37,322.81,294.43,325.62,294.43z"/>
		<path class="st9" d="M324.23,292.58c1.47,0,2.67-0.55,2.67-1.24c0-0.68-1.2-1.24-2.67-1.24c-1.47,0-2.67,0.55-2.67,1.24
			C321.57,292.02,322.76,292.58,324.23,292.58z"/>
	</g>
	<g>
		<path class="st6" d="M327.94,336.06c2.85,0,5.18-0.6,5.18-1.34c0-0.74-2.33-1.34-5.18-1.34c-2.85,0-5.18,0.6-5.18,1.34
			C322.76,335.46,325.09,336.06,327.94,336.06z"/>
		<path class="st8" d="M326.46,335.86c3.07,0,5.57-1.16,5.57-2.59c0-1.43-2.5-2.59-5.57-2.59c-3.07,0-5.58,1.17-5.58,2.59
			C320.88,334.7,323.39,335.86,326.46,335.86z"/>
		<path class="st9" d="M324.94,333.83c1.6,0,2.91-0.61,2.91-1.35c0-0.75-1.31-1.35-2.91-1.35c-1.6,0-2.91,0.61-2.91,1.35
			C322.03,333.22,323.34,333.83,324.94,333.83z"/>
	</g>
	<g>
		<ellipse class="st6" cx="322.69" cy="337.39" rx="5.18" ry="1.34"/>
		<path class="st8" d="M321.22,338.54c3.07,0,5.58-1.17,5.58-2.59c0-1.42-2.5-2.59-5.58-2.59c-3.07,0-5.58,1.17-5.58,2.59
			C315.64,337.37,318.15,338.54,321.22,338.54z"/>
		<path class="st9" d="M319.7,336.51c1.61,0,2.91-0.61,2.91-1.35c0-0.74-1.31-1.35-2.91-1.35c-1.61,0-2.91,0.61-2.91,1.35
			C316.78,335.9,318.09,336.51,319.7,336.51z"/>
	</g>
	<g>
		<path class="st6" d="M330.2,341.84c2.86,0,5.18-0.6,5.18-1.34c0-0.74-2.32-1.34-5.18-1.34c-2.85,0-5.18,0.6-5.18,1.34
			C325.02,341.24,327.35,341.84,330.2,341.84z"/>
		<path class="st8" d="M328.73,341.65c3.07,0,5.58-1.16,5.58-2.59c0-1.43-2.51-2.59-5.58-2.59c-3.07,0-5.58,1.16-5.58,2.59
			C323.15,340.48,325.65,341.65,328.73,341.65z"/>
		<path class="st9" d="M327.21,339.62c1.6,0,2.91-0.61,2.91-1.35s-1.31-1.35-2.91-1.35c-1.6,0-2.91,0.61-2.91,1.35
			S325.6,339.62,327.21,339.62z"/>
	</g>
	<g>
		<path class="st6" d="M314.99,343.22c1.32,0,2.4-0.28,2.4-0.62c0-0.34-1.08-0.62-2.4-0.62c-1.32,0-2.39,0.28-2.39,0.62
			C312.6,342.94,313.67,343.22,314.99,343.22z"/>
		<path class="st8" d="M314.31,343.12c1.42,0,2.58-0.54,2.58-1.2c0-0.66-1.16-1.2-2.58-1.2c-1.42,0-2.58,0.54-2.58,1.2
			C311.73,342.59,312.89,343.12,314.31,343.12z"/>
		<path class="st9" d="M313.6,342.19c0.74,0,1.35-0.28,1.35-0.63c0-0.34-0.61-0.63-1.35-0.63c-0.74,0-1.35,0.28-1.35,0.63
			C312.26,341.91,312.86,342.19,313.6,342.19z"/>
	</g>
	<g>
		<path class="st6" d="M365.06,303.75c1.32,0,2.4-0.28,2.4-0.62c0-0.34-1.08-0.62-2.4-0.62c-1.32,0-2.4,0.28-2.4,0.62
			C362.66,303.47,363.74,303.75,365.06,303.75z"/>
		<path class="st8" d="M364.38,303.66c1.42,0,2.58-0.54,2.58-1.2c0-0.66-1.16-1.2-2.58-1.2c-1.42,0-2.58,0.54-2.58,1.2
			C361.8,303.12,362.95,303.66,364.38,303.66z"/>
		<path class="st9" d="M363.68,302.72c0.74,0,1.35-0.28,1.35-0.63c0-0.34-0.61-0.63-1.35-0.63c-0.74,0-1.35,0.28-1.35,0.63
			C362.33,302.44,362.93,302.72,363.68,302.72z"/>
	</g>
	<g>
		<path class="st6" d="M247.95,349.6c2.01,0,3.65-0.42,3.65-0.94c0-0.52-1.64-0.94-3.65-0.94c-2.01,0-3.65,0.42-3.65,0.94
			C244.31,349.18,245.94,349.6,247.95,349.6z"/>
		<path class="st8" d="M246.91,349.46c2.16,0,3.93-0.82,3.93-1.82s-1.76-1.82-3.93-1.82c-2.16,0-3.93,0.82-3.93,1.82
			S244.75,349.46,246.91,349.46z"/>
		<path class="st9" d="M245.84,348.03c1.13,0,2.05-0.43,2.05-0.95c0-0.52-0.92-0.95-2.05-0.95c-1.13,0-2.05,0.43-2.05,0.95
			C243.79,347.61,244.71,348.03,245.84,348.03z"/>
	</g>
	<g>
		<path class="st6" d="M301.91,308.19c2.01,0,3.65-0.42,3.65-0.94c0-0.52-1.64-0.94-3.65-0.94c-2.01,0-3.65,0.42-3.65,0.94
			C298.26,307.77,299.9,308.19,301.91,308.19z"/>
		<path class="st8" d="M300.86,308.05c2.16,0,3.92-0.82,3.92-1.82c0-1-1.76-1.83-3.92-1.83c-2.16,0-3.93,0.82-3.93,1.83
			C296.94,307.23,298.7,308.05,300.86,308.05z"/>
		<path class="st9" d="M299.8,306.62c1.13,0,2.05-0.43,2.05-0.95c0-0.52-0.92-0.95-2.05-0.95c-1.13,0-2.05,0.43-2.05,0.95
			C297.75,306.2,298.67,306.62,299.8,306.62z"/>
	</g>
	<path class="st10" d="M181.85,164.08l16.24-4.38l9.85,36.57c1.2,4.46-1.47,9.1-5.93,10.31l0,0c-4.47,1.2-9.1-1.47-10.31-5.93
		L181.85,164.08z"/>
	<path class="st11" d="M146.43,0.25L146.43,0.25c3.94-1.06,8.02,1.29,9.08,5.23l41.62,154.49l-14.31,3.85L141.21,9.33
		C140.15,5.4,142.5,1.31,146.43,0.25z"/>
	<path class="st3" d="M162.87,234.64c8.37-8.06,15.11-3.83,24.57-0.82c6.93,2.21,20.71,4.17,24.13,11.16
		c3.06,6.25-7.11,6.8-11.19,7.23c-13.68,1.45-19.38-0.41-32.39-2.61c-3.62-0.6-15.47-2.62-10.71-8.59
		C158.87,239.02,161.11,236.56,162.87,234.64z"/>
	<path class="st3" d="M278.05,199.19c5.55,1.54,17.28,3.5,20.13,8.37c5.53,9.45-18.74,16.32-25.69,14.93
		c-13.91-2.77-12.69-25.17,0.38-24.35C274.73,198.26,276.29,198.71,278.05,199.19z"/>
</g>
</svg>
