<?xml version="1.0" encoding="utf-8"?>
<!-- Generator: Adobe Illustrator 17.0.1, SVG Export Plug-In . SVG Version: 6.00 Build 0)  -->
<!DOCTYPE svg PUBLIC "-//W3C//DTD SVG 1.1//EN" "http://www.w3.org/Graphics/SVG/1.1/DTD/svg11.dtd">
<svg version="1.1" xmlns="http://www.w3.org/2000/svg" xmlns:xlink="http://www.w3.org/1999/xlink" x="0px" y="0px" width="1980px"
	 height="2408.2px" viewBox="0 0 1980 2408.2" enable-background="new 0 0 1980 2408.2" xml:space="preserve">
<g id="Layer_1">
</g>
<g id="Layer_3">
	<g>
		<g>
			<polyline fill="#B3B3B3" points="1000,2243.5 1952.8,2243.5 1689.7,2040.2 290.3,2040.2 27.2,2243.5 980,2243.5 			"/>
			<path fill="#B3B3B3" d="M1952.8,2248.4H1000v-9.7h938.5L1688,2045.1H292L41.5,2238.7H980v9.7H27.2c-2.1,0-3.9-1.3-4.6-3.3
				c-0.7-2,0-4.2,1.6-5.4l263.1-203.3c0.9-0.7,1.9-1,3-1h1399.3c1.1,0,2.1,0.4,3,1l263.1,203.3c1.6,1.3,2.3,3.5,1.6,5.4
				C1956.7,2247.1,1954.9,2248.4,1952.8,2248.4z"/>
		</g>
		<g>
			<path fill="#CCCCCC" d="M990,62.8c175.4,0,478.4,187.4,526.2,530.2c71.8,0,111.6,0,111.6,0l-95.7,1419.2H447.8L352.2,593
				c0,0,39.9,0,111.6,0C511.6,250.2,814.6,62.8,990,62.8"/>
			<path fill="#CCCCCC" d="M1532.2,2017.1H447.8c-2.6,0-4.7-2-4.9-4.5L347.3,593.3c-0.1-1.3,0.4-2.7,1.3-3.7c0.9-1,2.2-1.5,3.6-1.5
				h107.4c28.3-194.1,133.1-320.5,216.3-392.5C774,110.7,894.4,57.9,990,57.9s216,52.8,314.1,137.7c83.2,72,188,198.4,216.3,392.5
				h107.4c1.3,0,2.6,0.6,3.6,1.5c0.9,1,1.4,2.3,1.3,3.7L1537,2012.5C1536.8,2015.1,1534.7,2017.1,1532.2,2017.1z M452.4,2007.3
				h1075.2l95-1409.5h-106.4c-2.4,0-4.5-1.8-4.8-4.2c-27-193.4-131.1-319.2-213.6-390.7C1201.3,119.5,1083.4,67.7,990,67.7
				S778.7,119.5,682.2,203c-82.6,71.4-186.6,197.2-213.6,390.7c-0.3,2.4-2.4,4.2-4.8,4.2H357.4L452.4,2007.3z"/>
		</g>
		<g>
			<path fill="#B3B3B3" d="M1569.4,2052.1h-37.3H447.8h-37.3l-2.5-37.2L312.4,595.7l-2.9-42.5h42.6H430
				c35.7-187.8,139.6-311.8,223-383.9C757.2,79,886.4,22.9,990,22.9s232.8,56,337,146.3c83.4,72.2,187.3,196.1,223,383.9h77.8h42.6
				l-2.9,42.5l-95.7,1419.2L1569.4,2052.1z M485.1,1972.3h1009.8l90.3-1339.5h-69h-34.7l-4.8-34.4
				c-46.1-330.2-336.9-495.8-486.7-495.8c-149.9,0-440.7,165.7-486.7,495.8l-4.8,34.4h-34.7h-69L485.1,1972.3z"/>
			<g>
				<path fill="#808080" d="M1569.4,2052.6l-289.7,1.7l-289.7,1.1l-289.7,0.6l-289.7,0.4c-2.3,0-4.1-1.8-4.3-4l-25-374.8
					l-23.9-374.8l-11.9-187.4L333.1,928l-12.5-187.4l-12.8-187.4c-0.1-0.9,0.7-1.8,1.6-1.8l0.1,0l120.4-0.2l-1.9,1.6
					c6.7-33.9,15.5-67.4,26.8-100.1c11.6-32.6,25.7-64.3,42.1-94.7c32.8-60.9,75.4-116.5,125.1-164.7c24.9-24.1,51.4-46.3,79.6-66.6
					c28.1-20.2,57.8-38.3,88.8-53.9c31-15.6,63.2-28.7,96.6-38.4C920.4,25,955,19,990,18.6l13.1,0.4l6.5,0.2l6.6,0.6l13.1,1.2
					c4.3,0.5,8.6,1.3,12.9,1.9c17.3,2.5,34.2,6.6,51,11.1c33.5,9.5,65.8,22.6,96.9,38c31.1,15.5,60.8,33.5,89.1,53.6
					c28.3,20.1,55,42.3,80,66.4c50.1,48.1,93,103.7,126.2,164.7c16.6,30.5,30.8,62.3,42.6,95c11.4,32.8,20.3,66.4,27.1,100.5l-5-4.1
					l120.4,0.1c2.8,0,5,2.2,5,5c0,0.1,0,0.2,0,0.3l-25.6,374.7l-26.1,374.7l-26.6,374.6l-27.2,374.6
					C1569.9,2052.4,1569.7,2052.5,1569.4,2052.6z M1569,2051.6l23.3-374.4l23.9-374.8l24.4-374.8l24.9-374.8l5,5.4l-120.4,0.1
					c-2.5,0-4.5-1.7-5-4.1l0-0.1c-6.7-33.5-15.5-66.6-26.8-98.9c-11.6-32.2-25.7-63.4-42-93.5c-32.5-60.2-74.7-115.1-123.9-162.6
					c-24.6-23.8-51-45.8-78.8-65.7c-27.8-19.9-57.2-37.7-87.7-53.1c-30.6-15.3-62.4-28.3-95.2-37.6c-16.5-4.4-33.1-8.6-49.9-11
					c-4.2-0.6-8.4-1.4-12.6-1.9l-12.6-1.2l-6.3-0.6l-6.5-0.2L990,27.2c-34,0.2-67.9,5.9-100.8,15c-32.9,9.3-64.8,22.1-95.5,37.3
					c-30.7,15.2-60.1,33-88.1,52.8c-27.9,19.8-54.5,41.8-79.2,65.5c-49.6,47.4-92.1,102.4-125,162.6c-16.5,30.1-30.6,61.5-42.4,93.8
					c-11.4,32.4-20.3,65.6-27.2,99.3l0,0c-0.2,0.9-1,1.5-1.9,1.5l-120.4-0.2l1.7-1.8l12.4,187.4l12.8,187.4l12.9,187.3l13.3,187.3
					l26.6,374.6l25.6,374.7l-4.3-4l289.7,0.4l289.7,0.6l289.7,1.1L1569,2051.6z"/>
				<path fill="#808080" d="M485.6,1971.8l252-1.7l252.4-1l252.4-0.7l252.4-0.4l-4.2,4l5.5-83.7l5.8-83.7l11.5-167.4l23.8-334.8
					l12-167.4l11.7-167.4l11.6-167.4l11.1-167.4l1.7,1.8l-103.7,0.1c-0.9,0-1.7-0.7-1.8-1.5c-4.4-32.3-9.2-64.6-17-96.1
					c-7.9-31.5-18.5-62.3-31.4-92.1c-13-29.8-28.4-58.5-46.1-85.7c-17.7-27.2-37.8-52.8-59.7-76.7c-21.9-23.9-45.8-46-71.2-66.1
					c-25.4-20.1-52.5-38.2-80.9-53.8c-28.4-15.6-58.1-28.9-88.8-38.9c-15.4-4.8-31-9.1-46.9-12c-15.8-2.8-32-4.7-47.7-4.8l-12.2,0.4
					c-4.1,0.1-7.9,0.7-11.9,1c-2,0.2-3.9,0.3-5.9,0.6l-6,0.9c-4,0.7-8,1.1-11.9,2c-15.8,2.9-31.4,7.4-46.7,12.2
					c-30.6,10.2-60.2,23.6-88.5,39.3c-28.3,15.7-55.2,33.9-80.5,54.1c-25.3,20.2-49,42.4-70.7,66.3c-21.7,23.9-41.7,49.6-59.2,76.7
					c-17.5,27.2-32.7,55.8-45.5,85.5c-12.8,29.7-23.3,60.4-31,91.7c-7.7,31.4-12.3,63.4-16.7,95.8c-0.3,2.5-2.5,4.4-5,4.4
					l-103.7-0.1l5-5.3L422,967.4l21.7,334.9l21.2,335L485.6,1971.8z M484.6,1972.4l-24.5-334.7l-23.9-334.8L412.7,968l-22.9-334.8
					c-0.2-2.8,1.9-5.1,4.6-5.3c0.1,0,0.2,0,0.3,0l103.7-0.1l-5,4.4c4.4-32.2,9-64.9,16.8-96.8c7.8-31.9,18.5-63.2,31.5-93.4
					c13.1-30.2,28.6-59.3,46.5-86.9c17.9-27.6,38.2-53.6,60.4-77.9c22.2-24.2,46.3-46.7,72.1-67.1c25.7-20.4,53.1-38.8,81.9-54.7
					c28.8-15.9,58.9-29.4,90.2-39.7c15.7-4.9,31.6-9.4,47.9-12.3c4-0.9,8.2-1.3,12.2-2l6.1-0.9c2.1-0.3,4.2-0.4,6.2-0.6
					c4.1-0.3,8.4-0.9,12.4-1l12.2-0.4c16.9,0.2,33.2,2.2,49.5,5.2c16.2,3,32.1,7.6,47.8,12.5c31.2,10.4,61.2,24.1,89.9,40.1
					c28.7,16,55.9,34.5,81.5,55c25.6,20.5,49.5,43,71.6,67.3c22,24.3,42.1,50.3,59.8,77.9c17.7,27.6,33.1,56.6,45.9,86.7
					c12.8,30.1,23.3,61.2,31,93c7.7,31.9,12.1,64.3,16.5,96.6l-1.8-1.5l103.7,0.1c0.9,0,1.7,0.7,1.7,1.7l0,0.1l-11.5,167.4
					l-11,167.5l-10.9,167.5l-10.6,167.5l-21.3,334.9l-11.1,167.4l-5.5,83.7l-5.8,83.7c-0.1,2.2-2,4-4.2,4l-252.4-0.4l-252.4-0.7
					l-252.4-1l-252.4-1.7C484.8,1972.8,484.6,1972.6,484.6,1972.4z"/>
			</g>
		</g>
		<g>
			<rect x="204.7" y="1964.5" fill="#666666" width="1570.7" height="143.5"/>
			<path fill="#666666" d="M1775.3,2112.8H204.7c-2.7,0-4.9-2.2-4.9-4.9v-143.5c0-2.7,2.2-4.9,4.9-4.9h1570.7c2.7,0,4.9,2.2,4.9,4.9
				V2108C1780.2,2110.7,1778,2112.8,1775.3,2112.8z M209.5,2103.1h1560.9v-133.8H209.5V2103.1z"/>
		</g>
		<g>
			<rect x="25.3" y="2239.5" fill="#666666" width="1929.5" height="143.5"/>
			<path fill="#666666" d="M1954.7,2389.5H25.3c-3.6,0-6.5-2.9-6.5-6.5v-143.5c0-3.6,2.9-6.5,6.5-6.5h1929.5c3.6,0,6.5,2.9,6.5,6.5
				v143.5C1961.2,2386.6,1958.3,2389.5,1954.7,2389.5z M31.8,2376.6h1916.5V2246H31.8V2376.6z"/>
		</g>
		<g>
			<g>
				<path fill="#666666" d="M830.5,963.6h-13.2c-17.9,0-26.9-9.3-26.9-28v-94.5c0-4.2-1.5-7.8-4.5-10.8s-6.6-4.5-10.8-4.5h-13.2
					v130.9h9.5v6.9h-49.6v-6.9h9.5V703.1h-9.5v-6.9h53.3c12.7,0,23.5,3.8,32.4,11.5c9,7.6,13.4,16.8,13.4,27.5v51.7
					c0,16.7-8.9,28.5-26.7,35.4c17.8,7.5,26.7,19.3,26.7,35.6v88.6c0,6.8,2.9,10.3,8.8,10.3h0.7V963.6z M790.4,803.6v-85.2
					c0-4.2-1.5-7.8-4.5-10.8s-6.6-4.5-10.8-4.5h-13.2v115.8h13.2c4.2,0,7.8-1.5,10.8-4.5S790.4,807.8,790.4,803.6z"/>
			</g>
			<g>
				<path fill="#666666" d="M873,963.6h-29.5v-45.9H873V963.6z"/>
			</g>
			<g>
				<path fill="#666666" d="M995.5,963.6h-49.6v-6.9h9.5V703.1h-9.5v-6.9h49.6v6.9H986v253.6h9.5V963.6z"/>
			</g>
			<g>
				<path fill="#666666" d="M1040.6,963.6h-29.5v-45.9h29.5V963.6z"/>
			</g>
			<g>
				<path fill="#666666" d="M1212,810.1c0,10.7-4.5,19.9-13.4,27.5s-19.8,11.5-32.4,11.5h-13.2v107.6h9.5v6.9h-49.6v-6.9h9.5V703.1
					h-9.5v-6.9h53.3c12.7,0,23.5,3.8,32.4,11.5s13.4,16.8,13.4,27.5V810.1z M1181.4,826.9V718.4c0-4.2-1.5-7.8-4.5-10.8
					s-6.6-4.5-10.8-4.5h-13.2v139.1h13.2c4.2,0,7.8-1.5,10.8-4.5S1181.4,831.1,1181.4,826.9z"/>
			</g>
			<g>
				<path fill="#666666" d="M1258.2,963.6h-29.5v-45.9h29.5V963.6z"/>
			</g>
		</g>
	</g>
</g>
</svg>
